<svg xmlns="http://www.w3.org/2000/svg" width="1200" height="400" viewBox="0 0 1200 400">
  <rect width="1200" height="400" fill="#000"/>
  <defs>
    <linearGradient id="g" x1="0%" y1="0%" x2="100%" y2="0%">
      <stop offset="0%" style="stop-color:#5865F2;stop-opacity:0.3" />
      <stop offset="100%" style="stop-color:#000;stop-opacity:0" />
    </linearGradient>
  </defs>
  <rect width="1200" height="400" fill="url(#g)"/>
  <text x="100" y="220" font-family="system-ui, sans-serif" font-size="80" font-weight="900" fill="#fff" letter-spacing="4">JOIN OUR DISCORD</text>
  <text x="100" y="280" font-family="system-ui, sans-serif" font-size="30" font-weight="600" fill="#5865F2" letter-spacing="8" opacity="0.8">COMMUNITY &amp; SUPPORT</text>
  <path fill="#5865F2" d="M107.7 20.9c-8.1-3.7-16.7-6.4-25.8-7.9-.1 0-.2.1-.3.2-1.1 2-2.3 4.3-3.2 6.5-9.8-1.5-19.5-1.5-29.1 0-.9-2.2-2.1-4.5-3.2-6.5-.1-.1-.2-.2-.3-.2-9.1 1.5-17.7 4.2-25.8 7.9-.1 0-.1.1-.1.2-16.4 24.5-20.9 48.4-18.7 72 .1.1.1.2.2.3 10.8 7.9 21.3 12.7 31.6 15.9.1 0 .2 0 .3-.1 2.5-3.5 4.8-7.2 6.7-11.2 0-.1 0-.2-.1-.3-3.5-1.3-6.8-2.9-10-4.8-.1-.1-.1-.2 0-.3.2-.2.5-.4.7-.6.1 0 .1-.1.2-.1 21 9.7 43.8 9.7 64.4 0 .1 0 .1 0 .2.1.2.2.5.4.7.6.1.1.1.2 0 .3-3.2 1.9-6.5 3.5-10 4.8-.1.1-.1.2-.1.3 1.9 4 4.2 7.7 6.7 11.2.1.1.2.1.3.1 10.3-3.2 20.8-8 31.6-15.9.1-.1.1-.2.2-.3 2.5-27.2-4.1-50.9-18.7-72.1-.1-.1-.1-.2-.2-.2zM46.7 75.1c-6.2 0-11.4-5.7-11.4-12.7S40.4 49.7 46.7 49.7c6.2 0 11.4 5.7 11.4 12.7.1 7-5.1 12.7-11.4 12.7zm34.6 0c-6.2 0-11.4-5.7-11.4-12.7S75.1 49.7 81.3 49.7c6.2 0 11.4 5.7 11.4 12.7.1 7-5.1 12.7-11.4 12.7z" transform="translate(850, 80) scale(2)" opacity="0.2"/>
</svg>
